<svg data-v-6d580632="" fill="#000" version="1.1" id="Layer_1" xmlns="http://www.w3.org/2000/svg" xmlns:xlink="http://www.w3.org/1999/xlink" x="0px" y="0px" viewBox="0 0 118.9 41.8" enable-background="new 0 0 118.9 41.8" xml:space="preserve"><g data-v-6d580632=""><defs data-v-6d580632=""><rect data-v-6d580632="" id="SVGID_1_" y="0" width="118.9" height="41.8"></rect></defs><clipPath data-v-6d580632="" id="SVGID_2_"><use data-v-6d580632="" xlink:href="#SVGID_1_" overflow="visible"></use></clipPath><path data-v-6d580632="" clip-path="url(#SVGID_2_)" d="M99.6,41.8c0.4,0,0.8-0.1,1.1-0.3c0.3-0.2,0.6-0.5,0.8-0.8c0.2-0.3,0.3-0.7,0.3-1.1v-1
            c0-0.1,0-0.2-0.1-0.2c-0.1-0.1-0.1-0.1-0.2-0.1h-1.6c0,0-0.1,0-0.1,0c0,0,0,0.1,0,0.1v0.4c0,0,0,0.1,0,0.1c0,0,0.1,0,0.1,0h1.3v0.7
            c0,0.3-0.1,0.5-0.2,0.7c-0.1,0.2-0.3,0.4-0.5,0.5c-0.2,0.1-0.5,0.2-0.7,0.2c-0.3,0-0.5-0.1-0.7-0.2c-0.2-0.1-0.4-0.3-0.5-0.5
            c-0.1-0.2-0.2-0.5-0.2-0.7v-2.1c0-0.3,0.1-0.5,0.2-0.7c0.1-0.2,0.3-0.4,0.5-0.5c0.2-0.1,0.5-0.2,0.7-0.2c0.5,0,0.8,0.1,1.1,0.4
            c0,0,0.1,0.1,0.1,0.1c0,0,0.1,0,0.1,0c0.1-0.1,0.2-0.2,0.2-0.3c0,0,0-0.1,0-0.1c0,0,0-0.1,0-0.1c-0.2-0.2-0.5-0.4-0.7-0.5
            c-0.3-0.1-0.6-0.2-0.9-0.2c-0.4,0-0.8,0.1-1.1,0.3s-0.6,0.5-0.8,0.8c-0.2,0.3-0.3,0.7-0.3,1.1v2.1c0,0.4,0.1,0.8,0.3,1.1
            s0.5,0.6,0.8,0.8C98.9,41.7,99.2,41.8,99.6,41.8 M91.7,41.7h0.4c0,0,0.1,0,0.1,0c0,0,0-0.1,0-0.1v-4.9l2.8,4.9c0,0,0.1,0.1,0.1,0.1
            s0.1,0,0.1,0h0.5c0.1,0,0.1,0,0.1-0.1c0,0,0.1-0.1,0.1-0.1v-5.9c0,0,0-0.1,0-0.1c0,0-0.1,0-0.1,0h-0.4c0,0-0.1,0-0.1,0
            c0,0,0,0.1,0,0.1v4.9l-2.8-4.9c0,0-0.1-0.1-0.1-0.1s-0.1,0-0.1,0h-0.5c-0.1,0-0.1,0-0.1,0.1c0,0-0.1,0.1-0.1,0.1v5.9
            C91.6,41.6,91.6,41.6,91.7,41.7C91.6,41.7,91.7,41.7,91.7,41.7 M87.6,41.7h2.5c0,0,0.1,0,0.1,0c0,0,0-0.1,0-0.1v-0.4
            c0,0,0-0.1,0-0.1c0,0-0.1,0-0.1,0h-0.9v-4.8h0.9c0,0,0.1,0,0.1,0c0,0,0-0.1,0-0.1v-0.4c0,0,0-0.1,0-0.1c0,0-0.1,0-0.1,0h-2.5
            c0,0-0.1,0-0.1,0c0,0,0,0.1,0,0.1v0.4c0,0,0,0.1,0,0.1c0,0,0.1,0,0.1,0h0.9V41h-0.9c0,0-0.1,0-0.1,0c0,0,0,0.1,0,0.1v0.4
            C87.4,41.6,87.4,41.6,87.6,41.7C87.5,41.7,87.5,41.7,87.6,41.7 M83,41v-4.8h1.2c0.3,0,0.6,0.1,0.8,0.2c0.2,0.1,0.4,0.3,0.6,0.6
            c0.1,0.2,0.2,0.5,0.2,0.8v1.6c0,0.3-0.1,0.6-0.2,0.8c-0.1,0.2-0.3,0.4-0.6,0.6c-0.2,0.1-0.5,0.2-0.8,0.2H83z M82.6,41.7h1.6
            c0.4,0,0.8-0.1,1.2-0.3c0.4-0.2,0.6-0.5,0.8-0.9c0.2-0.4,0.3-0.7,0.3-1.2v-1.5c0-0.4-0.1-0.8-0.3-1.2c-0.2-0.4-0.5-0.6-0.8-0.9
            c-0.4-0.2-0.7-0.3-1.2-0.3h-1.6c-0.1,0-0.2,0-0.2,0.1s-0.1,0.1-0.1,0.2v5.5c0,0.1,0,0.2,0.1,0.2S82.5,41.7,82.6,41.7 M78.6,41.1
            c-0.3,0-0.5-0.1-0.7-0.2c-0.2-0.1-0.4-0.3-0.5-0.5c-0.1-0.2-0.2-0.5-0.2-0.7v-2.1c0-0.3,0.1-0.5,0.2-0.7c0.1-0.2,0.3-0.4,0.5-0.5
            c0.2-0.1,0.5-0.2,0.7-0.2c0.3,0,0.5,0.1,0.7,0.2c0.2,0.1,0.4,0.3,0.5,0.5c0.1,0.2,0.2,0.5,0.2,0.7v2.1c0,0.3-0.1,0.5-0.2,0.7
            c-0.1,0.2-0.3,0.4-0.5,0.5C79.1,41,78.9,41.1,78.6,41.1 M78.6,41.8c0.4,0,0.8-0.1,1.1-0.3s0.6-0.5,0.8-0.8c0.2-0.3,0.3-0.7,0.3-1.1
            v-2.1c0-0.4-0.1-0.8-0.3-1.1c-0.2-0.3-0.5-0.6-0.8-0.8s-0.7-0.3-1.1-0.3c-0.4,0-0.8,0.1-1.1,0.3s-0.6,0.5-0.8,0.8
            c-0.2,0.3-0.3,0.7-0.3,1.1v2.1c0,0.4,0.1,0.8,0.3,1.1c0.2,0.3,0.5,0.6,0.8,0.8S78.2,41.8,78.6,41.8 M73.8,41.8
            c0.3,0,0.6-0.1,0.9-0.2c0.3-0.1,0.5-0.3,0.7-0.5c0,0,0-0.1,0-0.1c0,0,0-0.1,0-0.1c-0.1-0.1-0.2-0.2-0.2-0.3c0,0-0.1,0-0.1,0
            c0,0-0.1,0-0.1,0.1c-0.3,0.3-0.7,0.4-1.1,0.4c-0.3,0-0.5-0.1-0.7-0.2c-0.2-0.1-0.4-0.3-0.5-0.5c-0.1-0.2-0.2-0.5-0.2-0.7v-2.1
            c0-0.3,0.1-0.5,0.2-0.7c0.1-0.2,0.3-0.4,0.5-0.5c0.2-0.1,0.4-0.2,0.7-0.2c0.4,0,0.8,0.1,1.1,0.4c0,0,0.1,0.1,0.1,0.1
            c0,0,0.1,0,0.1,0c0,0,0.1-0.1,0.2-0.3c0,0,0-0.1,0-0.1c0,0,0-0.1,0-0.1c-0.2-0.2-0.4-0.4-0.7-0.5c-0.3-0.1-0.6-0.2-0.9-0.2
            c-0.4,0-0.7,0.1-1.1,0.3c-0.3,0.2-0.6,0.5-0.8,0.8c-0.2,0.3-0.3,0.7-0.3,1.1v2.1c0,0.4,0.1,0.8,0.3,1.1c0.2,0.3,0.4,0.6,0.8,0.8
            C73.1,41.7,73.4,41.8,73.8,41.8 M65.6,41.7h2.7c0,0,0.1,0,0.1,0c0,0,0-0.1,0-0.1v-0.4c0,0,0-0.1,0-0.1c0,0-0.1,0-0.1,0H66v-5.4
            c0,0,0-0.1,0-0.1c0,0-0.1,0-0.1,0h-0.5c0,0-0.1,0-0.1,0c0,0,0,0.1,0,0.1v5.7c0,0.1,0,0.2,0.1,0.2C65.4,41.7,65.5,41.7,65.6,41.7
             M60.9,41.7h2.9c0,0,0.1,0,0.1,0c0,0,0-0.1,0-0.1v-0.4c0,0,0-0.1,0-0.1c0,0-0.1,0-0.1,0h-2.5v-2.2h1.9c0,0,0.1,0,0.1,0
            c0,0,0-0.1,0-0.1v-0.4c0,0,0-0.1,0-0.1c0,0-0.1,0-0.1,0h-1.9v-1.9h2.5c0,0,0.1,0,0.1,0c0,0,0-0.1,0-0.1v-0.4c0,0,0-0.1,0-0.1
            c0,0-0.1,0-0.1,0h-2.9c-0.1,0-0.2,0-0.2,0.1s-0.1,0.1-0.1,0.2v5.5c0,0.1,0,0.2,0.1,0.2S60.8,41.7,60.9,41.7 M56.3,41v-2.2h1.3
            c0.3,0,0.6,0.1,0.8,0.3c0.2,0.2,0.3,0.5,0.3,0.8c0,0.3-0.1,0.6-0.3,0.8c-0.2,0.2-0.5,0.3-0.8,0.3H56.3z M56.3,38.2v-2h1.1
            c0.3,0,0.5,0.1,0.7,0.3c0.2,0.2,0.3,0.4,0.3,0.7c0,0.3-0.1,0.5-0.3,0.7c-0.2,0.2-0.4,0.3-0.7,0.3H56.3z M55.9,41.7h1.8
            c0.3,0,0.6-0.1,0.9-0.2c0.3-0.2,0.5-0.4,0.7-0.7c0.2-0.3,0.2-0.6,0.2-0.9c0-0.3-0.1-0.7-0.3-0.9c-0.2-0.3-0.4-0.5-0.7-0.6
            c0.2-0.2,0.3-0.3,0.4-0.5c0.1-0.2,0.2-0.4,0.2-0.7c0-0.3-0.1-0.6-0.2-0.8c-0.1-0.2-0.3-0.4-0.6-0.6c-0.2-0.1-0.5-0.2-0.8-0.2h-1.5
            c-0.1,0-0.2,0-0.2,0.1s-0.1,0.1-0.1,0.2v5.5c0,0.1,0,0.2,0.1,0.2S55.8,41.7,55.9,41.7 M51.1,39.4l0.9-2.9l0.9,2.9H51.1z M49.8,41.7
            h0.4c0,0,0.1,0,0.1,0c0,0,0.1,0,0.1-0.1l0.5-1.5h2.3l0.5,1.5c0,0,0,0.1,0.1,0.1c0,0,0.1,0,0.1,0h0.4c0,0,0.1,0,0.1,0
            c0,0,0-0.1,0-0.1c0,0,0,0,0-0.1l-1.9-5.9c0,0,0-0.1-0.1-0.1c0,0-0.1,0-0.1,0h-0.6c0,0-0.1,0-0.1,0c0,0-0.1,0-0.1,0.1l-1.9,5.9
            c0,0.1,0,0.1,0,0.1C49.7,41.7,49.8,41.7,49.8,41.7 M46,41.7h2.7c0,0,0.1,0,0.1,0c0,0,0-0.1,0-0.1v-0.4c0,0,0-0.1,0-0.1
            c0,0-0.1,0-0.1,0h-2.2v-5.4c0,0,0-0.1,0-0.1c0,0-0.1,0-0.1,0h-0.5c0,0-0.1,0-0.1,0c0,0,0,0.1,0,0.1v5.7c0,0.1,0,0.2,0.1,0.2
            S45.9,41.7,46,41.7 M41.4,41.7h2.9c0,0,0.1,0,0.1,0c0,0,0-0.1,0-0.1v-0.4c0,0,0-0.1,0-0.1c0,0-0.1,0-0.1,0h-2.5v-2.2h1.9
            c0,0,0.1,0,0.1,0c0,0,0-0.1,0-0.1v-0.4c0,0,0-0.1,0-0.1c0,0-0.1,0-0.1,0h-1.9v-1.9h2.5c0,0,0.1,0,0.1,0c0,0,0-0.1,0-0.1v-0.4
            c0,0,0-0.1,0-0.1c0,0-0.1,0-0.1,0h-2.9c-0.1,0-0.2,0-0.2,0.1c-0.1,0.1-0.1,0.1-0.1,0.2v5.5c0,0.1,0,0.2,0.1,0.2
            C41.2,41.7,41.3,41.7,41.4,41.7 M37.7,41.7h0.5c0,0,0.1,0,0.1,0c0,0,0-0.1,0-0.1v-5.4h1.5c0,0,0.1,0,0.1,0c0,0,0-0.1,0-0.1v-0.4
            c0,0,0-0.1,0-0.1c0,0-0.1,0-0.1,0H36c0,0-0.1,0-0.1,0c0,0,0,0.1,0,0.1v0.4c0,0,0,0.1,0,0.1c0,0,0.1,0,0.1,0h1.5v5.4
            C37.5,41.6,37.5,41.6,37.7,41.7C37.6,41.7,37.6,41.7,37.7,41.7 M32.3,41.7h2.5c0,0,0.1,0,0.1,0c0,0,0-0.1,0-0.1v-0.4
            c0,0,0-0.1,0-0.1c0,0-0.1,0-0.1,0h-0.9v-4.8h0.9c0,0,0.1,0,0.1,0c0,0,0-0.1,0-0.1v-0.4c0,0,0-0.1,0-0.1c0,0-0.1,0-0.1,0h-2.5
            c0,0-0.1,0-0.1,0c0,0,0,0.1,0,0.1v0.4c0,0,0,0.1,0,0.1c0,0,0.1,0,0.1,0h0.9V41h-0.9c0,0-0.1,0-0.1,0c0,0,0,0.1,0,0.1v0.4
            C32.1,41.6,32.1,41.6,32.3,41.7C32.2,41.7,32.2,41.7,32.3,41.7 M26.5,41.7h0.5c0,0,0.1,0,0.1,0c0,0,0-0.1,0-0.1v-2.8h3v2.8
            c0,0,0,0.1,0,0.1c0,0,0.1,0,0.1,0h0.5c0,0,0.1,0,0.1,0c0,0,0-0.1,0-0.1v-5.9c0,0,0-0.1,0-0.1c0,0-0.1,0-0.1,0h-0.5c0,0-0.1,0-0.1,0
            c0,0,0,0.1,0,0.1v2.5h-3v-2.5c0,0,0-0.1,0-0.1c0,0-0.1,0-0.1,0h-0.5c0,0-0.1,0-0.1,0c0,0,0,0.1,0,0.1v5.9
            C26.3,41.6,26.3,41.6,26.5,41.7C26.4,41.7,26.4,41.7,26.5,41.7 M19,41.7h0.5c0,0,0.1,0,0.1,0c0,0,0.1-0.1,0.1-0.1l1.3-4.7l1.4,4.7
            c0,0,0,0.1,0.1,0.1c0,0,0.1,0,0.1,0h0.5c0,0,0.1,0,0.1,0c0,0,0.1-0.1,0.1-0.1l1.7-5.8c0,0,0-0.1,0-0.1c0,0-0.1-0.1-0.1-0.1h-0.5
            c0,0-0.1,0-0.1,0c0,0-0.1,0.1-0.1,0.1l-1.4,5l-1.4-5c0,0,0-0.1-0.1-0.1c0,0-0.1,0-0.1,0h-0.5c0,0-0.1,0-0.1,0c0,0,0,0.1-0.1,0.1
            l-1.4,5l-1.4-5c0,0,0-0.1-0.1-0.1c0,0-0.1,0-0.1,0h-0.5c0,0-0.1,0-0.1,0c0,0,0,0.1,0,0.1c0,0,0,0,0,0l1.7,5.8c0,0,0,0.1,0.1,0.1
            C18.9,41.7,19,41.7,19,41.7"></path><path data-v-6d580632="" clip-path="url(#SVGID_2_)" d="M104.2,24.5l14.2-6c0.4-0.2,0.5-0.4,0.5-0.8l-0.1-2.6c0-0.4-0.2-0.6-0.5-0.8l-14.2-6
            c-0.2-0.1-0.4-0.1-0.5,0.1c-0.2,0.1-0.3,0.3-0.3,0.5v2.5c0,0.2,0.1,0.4,0.2,0.5c0.1,0.1,0.2,0.2,0.4,0.3l10.6,4.2l-10.5,4.2
            c-0.2,0.1-0.3,0.2-0.4,0.3c-0.1,0.1-0.2,0.3-0.2,0.5v2.5c0,0.2,0.1,0.3,0.2,0.4c0.1,0.1,0.3,0.2,0.4,0.2
            C104.1,24.5,104.1,24.5,104.2,24.5 M90.1,23.3c-1.1,0-2.1-0.4-2.9-1.2c-0.8-0.8-1.2-1.8-1.2-2.9v-4.7c0-1.1,0.4-2.1,1.2-2.9
            c0.8-0.8,1.8-1.2,2.9-1.2c1.1,0,2.1,0.4,2.9,1.2c0.8,0.8,1.2,1.8,1.2,2.9v4.7c0,1.1-0.4,2.1-1.2,2.9C92.2,22.9,91.2,23.3,90.1,23.3
             M89.5,27.3c1.1,0,2.1-0.2,2.9-0.7c0.9-0.5,1.6-1.2,2.3-2.2v1.7c0,0.2,0.1,0.4,0.2,0.5c0.1,0.1,0.3,0.2,0.5,0.2h2.3
            c0.2,0,0.4-0.1,0.5-0.2c0.1-0.1,0.2-0.3,0.2-0.5V0.7c0-0.2-0.1-0.4-0.2-0.5C98.1,0.1,97.9,0,97.7,0H95c-0.2,0-0.4,0.1-0.5,0.2
            c-0.1,0.1-0.2,0.3-0.2,0.5v7.2c-0.6-0.5-1.3-0.9-2.2-1.2c-0.8-0.3-1.7-0.4-2.6-0.4c-1.4,0-2.7,0.4-3.9,1.1s-2.1,1.7-2.8,3
            c-0.7,1.2-1.1,2.6-1.1,4v4.9c0,1.4,0.4,2.8,1.1,4c0.7,1.2,1.7,2.2,2.9,3C86.8,27,88.1,27.3,89.5,27.3 M67.9,23.6
            c-0.9,0-1.6-0.2-2.1-0.6c-0.5-0.4-0.8-1-0.8-1.7c0-1.3,1-2.1,2.9-2.5c0.4-0.1,1.3-0.2,2.8-0.4l2.6-0.4v0.7c0,0.8-0.3,1.6-0.8,2.4
            c-0.5,0.8-1.2,1.4-2,1.8C69.7,23.4,68.8,23.6,67.9,23.6 M67.6,27.3c2.2,0,4.1-0.9,5.8-2.6v1.4c0,0.2,0.1,0.4,0.2,0.5
            c0.1,0.1,0.3,0.2,0.5,0.2h2.4c0.2,0,0.4-0.1,0.5-0.2c0.1-0.1,0.2-0.3,0.2-0.5V13.4c0-1.4-0.3-2.6-1-3.7c-0.6-1.1-1.6-1.9-2.7-2.5
            c-1.2-0.6-2.5-0.9-4.1-0.9c-1.7,0-3.2,0.4-4.5,1.1c-1.3,0.7-2.3,1.7-3,3c0,0.1-0.1,0.2-0.1,0.3c0,0.3,0.1,0.5,0.3,0.6l2,1.3
            c0.1,0.1,0.3,0.1,0.5,0.1c0.3,0,0.5-0.2,0.7-0.5c0.9-1.4,2.2-2.1,4.1-2.1c1.1,0,2,0.3,2.7,0.8c0.7,0.5,1.1,1.2,1.1,2.1
            c0,0.8-0.4,1.3-1.3,1.5c-0.4,0.1-1.3,0.2-3,0.4c-0.5,0.1-1,0.2-1.5,0.2c-2,0.3-3.6,1-4.7,2.1c-1.1,1.1-1.7,2.4-1.7,4
            c0,1.8,0.6,3.2,1.8,4.3C64,26.8,65.6,27.3,67.6,27.3 M45.6,14.8v-0.3c0-1.1,0.4-2.1,1.2-2.9c0.8-0.8,1.8-1.2,2.9-1.2
            c1.1,0,2.1,0.4,2.9,1.2c0.8,0.8,1.2,1.8,1.2,2.9v0.3H45.6z M49.7,26.9h5.6c0.2,0,0.4-0.1,0.5-0.2c0.1-0.1,0.2-0.3,0.2-0.5v-2.5
            c0-0.2-0.1-0.4-0.2-0.5c-0.1-0.1-0.3-0.2-0.5-0.2h-5.6c-1.1,0-2.1-0.4-2.9-1.2c-0.8-0.8-1.2-1.8-1.2-2.9v-0.2h11
            c0.4,0,0.8-0.1,1.1-0.4c0.3-0.3,0.4-0.6,0.4-1.1v-2.4c0-1.5-0.4-2.9-1.1-4.2c-0.7-1.3-1.8-2.3-3-3.1c-1.3-0.7-2.7-1.1-4.2-1.1
            c-1.5,0-2.9,0.4-4.2,1.1c-1.3,0.8-2.3,1.8-3,3.1c-0.7,1.3-1.1,2.7-1.1,4.2v3.8c0,1.5,0.4,2.9,1.1,4.2s1.8,2.3,3,3.1
            C46.8,26.5,48.2,26.9,49.7,26.9 M21.2,26.9h2.7c0.2,0,0.4-0.1,0.5-0.2c0.1-0.1,0.2-0.3,0.2-0.5V15.4c0-1.6,0.4-2.8,1.2-3.7
            c0.8-0.9,1.9-1.4,3.3-1.4c1.1,0,2,0.3,2.7,1c0.6,0.7,0.9,1.6,0.9,2.9v11.9c0,0.2,0.1,0.4,0.2,0.5c0.1,0.1,0.3,0.2,0.5,0.2h2.7
            c0.2,0,0.4-0.1,0.5-0.2c0.1-0.1,0.2-0.3,0.2-0.5V13.7c0-1.5-0.3-2.7-0.9-3.8c-0.6-1.1-1.5-2-2.6-2.6c-1.1-0.6-2.4-0.9-3.8-0.9
            c-0.9,0-1.8,0.2-2.7,0.6c-0.9,0.4-1.6,0.9-2.3,1.6V0.7c0-0.2-0.1-0.4-0.2-0.5C24.3,0.1,24.1,0,23.9,0h-2.7c-0.2,0-0.4,0.1-0.5,0.2
            c-0.1,0.1-0.2,0.3-0.2,0.5v25.4c0,0.2,0.1,0.4,0.2,0.5C20.8,26.8,21,26.9,21.2,26.9 M14.7,24.5c0.2,0.1,0.4,0.1,0.5-0.1
            c0.2-0.1,0.3-0.3,0.3-0.5v-2.5c0-0.2-0.1-0.4-0.2-0.5c-0.1-0.1-0.2-0.2-0.4-0.3L4.5,16.4l10.6-4.2c0.2-0.1,0.3-0.2,0.4-0.3
            c0.1-0.1,0.2-0.3,0.2-0.5V8.9c0-0.2-0.1-0.3-0.2-0.4c-0.1-0.1-0.3-0.2-0.4-0.2c-0.1,0-0.2,0-0.2,0l-14.2,6
            c-0.4,0.2-0.5,0.4-0.5,0.8L0,17.7c0,0.4,0.2,0.6,0.5,0.8L14.7,24.5z"></path></g></svg>